<svg xmlns="http://www.w3.org/2000/svg" xmlns:xlink="http://www.w3.org/1999/xlink" width="482" zoomAndPan="magnify" viewBox="0 0 361.5 221.249992" height="295" preserveAspectRatio="xMidYMid meet" version="1.0"><defs><g/><clipPath id="1ff218004b"><path d="M 75.433594 75.066406 L 285.875 75.066406 L 285.875 145.691406 L 75.433594 145.691406 Z M 75.433594 75.066406 " clip-rule="nonzero"/></clipPath><clipPath id="957f94812a"><path d="M 221.816406 75.878906 L 286.019531 75.878906 L 286.019531 140.082031 L 221.816406 140.082031 Z M 221.816406 75.878906 " clip-rule="nonzero"/></clipPath><clipPath id="d564290352"><path d="M 234 87 L 275.117188 87 L 275.117188 133.664062 L 234 133.664062 Z M 234 87 " clip-rule="nonzero"/></clipPath></defs><g clip-path="url(#1ff218004b)"><path fill="#1572a1" d="M 275.523438 85.46875 C 268.902344 78.824219 260.089844 75.128906 250.671875 75.128906 C 241.25 75.128906 232.4375 78.777344 225.816406 85.46875 C 219.289062 92.019531 215.652344 100.71875 215.511719 109.980469 L 92.222656 109.980469 L 79.070312 128.085938 C 78.746094 127.898438 78.324219 127.804688 77.953125 127.804688 C 76.554688 127.804688 75.433594 128.925781 75.433594 130.332031 C 75.433594 131.734375 76.554688 132.855469 77.953125 132.855469 C 79.351562 132.855469 80.46875 131.734375 80.46875 130.332031 C 80.46875 129.628906 80.191406 129.019531 79.769531 128.554688 L 92.640625 110.777344 L 215.558594 110.777344 C 215.652344 120.039062 219.289062 128.742188 225.863281 135.289062 C 232.484375 141.933594 241.34375 145.628906 250.71875 145.628906 C 260.089844 145.628906 268.949219 141.980469 275.570312 135.289062 C 282.191406 128.648438 285.875 119.757812 285.875 110.355469 C 285.875 100.953125 282.191406 92.109375 275.523438 85.46875 Z M 274.964844 134.773438 C 268.484375 141.277344 259.855469 144.878906 250.671875 144.878906 C 241.484375 144.878906 232.859375 141.277344 226.375 134.773438 C 219.894531 128.273438 216.304688 119.617188 216.304688 110.402344 C 216.304688 101.1875 219.894531 92.53125 226.375 86.03125 C 232.859375 79.527344 241.484375 75.925781 250.671875 75.925781 C 259.855469 75.925781 268.484375 79.527344 274.964844 86.03125 C 281.445312 92.53125 285.039062 101.1875 285.039062 110.402344 C 285.039062 119.617188 281.445312 128.273438 274.964844 134.773438 Z M 274.964844 134.773438 " fill-opacity="1" fill-rule="nonzero"/></g><g clip-path="url(#957f94812a)"><path fill="#1572a1" d="M 253.917969 75.878906 C 236.1875 75.878906 221.816406 90.253906 221.816406 107.980469 C 221.816406 125.710938 236.1875 140.082031 253.917969 140.082031 C 271.648438 140.082031 286.019531 125.710938 286.019531 107.980469 C 286.019531 90.253906 271.648438 75.878906 253.917969 75.878906 " fill-opacity="1" fill-rule="nonzero"/></g><g clip-path="url(#d564290352)"><path fill="#efdad7" d="M 272 90.265625 C 270.148438 88.527344 267.667969 87.554688 265.109375 87.5625 C 262.464844 87.574219 259.984375 88.59375 258.113281 90.4375 L 254.550781 93.953125 L 251.074219 90.523438 C 247.207031 86.707031 240.902344 86.585938 236.996094 90.367188 C 233.046875 94.1875 233.023438 100.460938 236.925781 104.304688 L 255.796875 122.921875 C 257.949219 125.046875 258.050781 128.503906 255.9375 130.667969 C 253.777344 132.882812 250.191406 132.910156 247.996094 130.746094 L 243.320312 126.136719 C 243.125 125.941406 243.105469 125.632812 243.273438 125.414062 C 243.964844 124.519531 244.347656 123.378906 244.261719 122.15625 C 244.09375 119.734375 242.085938 117.785156 239.628906 117.660156 C 236.785156 117.515625 234.425781 119.773438 234.460938 122.558594 C 234.496094 125.136719 236.628906 127.265625 239.242188 127.328125 C 240.082031 127.351562 240.878906 127.160156 241.582031 126.808594 C 241.792969 126.703125 242.050781 126.746094 242.21875 126.914062 L 247.050781 131.679688 C 248.394531 133.003906 250.160156 133.667969 251.925781 133.667969 C 253.695312 133.667969 255.460938 133.003906 256.804688 131.679688 C 259.496094 129.023438 259.496094 124.707031 256.804688 122.054688 L 237.871094 103.375 C 234.515625 100.066406 234.515625 94.679688 237.871094 91.371094 C 241.226562 88.058594 246.6875 88.058594 250.042969 91.371094 L 254.0625 95.335938 C 254.195312 95.46875 254.375 95.53125 254.550781 95.527344 C 254.726562 95.53125 254.90625 95.46875 255.042969 95.335938 L 258.980469 91.449219 C 260.613281 89.835938 262.820312 88.886719 265.128906 88.882812 C 267.433594 88.878906 269.601562 89.761719 271.234375 91.371094 C 272.859375 92.976562 273.757812 95.113281 273.753906 97.386719 C 273.75 99.664062 272.785156 101.84375 271.152344 103.457031 L 269.878906 104.710938 C 269.773438 104.8125 269.632812 104.871094 269.484375 104.871094 L 265.6875 104.871094 C 265.476562 104.871094 265.285156 104.753906 265.191406 104.570312 L 263.359375 100.953125 C 263.152344 100.546875 262.566406 100.546875 262.363281 100.953125 L 259.210938 107.164062 C 259.007812 107.566406 258.421875 107.566406 258.214844 107.164062 L 257.140625 105.039062 C 256.933594 104.632812 256.347656 104.632812 256.144531 105.039062 L 255.066406 107.160156 C 254.863281 107.566406 254.277344 107.566406 254.070312 107.160156 L 250.921875 100.949219 C 250.71875 100.546875 250.132812 100.546875 249.929688 100.949219 L 248.09375 104.566406 C 248 104.753906 247.808594 104.871094 247.597656 104.871094 L 244.238281 104.871094 C 243.871094 104.871094 243.554688 105.148438 243.542969 105.507812 C 243.53125 105.882812 243.832031 106.1875 244.210938 106.1875 L 248.421875 106.1875 C 248.632812 106.1875 248.828125 106.070312 248.921875 105.886719 L 249.929688 103.898438 C 250.132812 103.492188 250.71875 103.492188 250.921875 103.898438 L 254.070312 110.109375 C 254.277344 110.515625 254.863281 110.515625 255.066406 110.109375 L 256.144531 107.988281 C 256.347656 107.582031 256.933594 107.582031 257.140625 107.988281 L 258.214844 110.109375 C 258.421875 110.515625 259.007812 110.515625 259.210938 110.109375 L 262.359375 103.898438 C 262.566406 103.496094 263.148438 103.492188 263.355469 103.898438 L 264.363281 105.886719 C 264.457031 106.070312 264.652344 106.191406 264.859375 106.191406 L 269.988281 106.191406 C 269.988281 106.191406 269.988281 106.191406 269.992188 106.191406 C 270.035156 106.191406 270.074219 106.183594 270.113281 106.179688 C 270.113281 106.179688 270.117188 106.175781 270.121094 106.175781 C 270.160156 106.167969 270.199219 106.160156 270.234375 106.144531 C 270.238281 106.144531 270.242188 106.140625 270.246094 106.140625 C 270.28125 106.125 270.316406 106.105469 270.351562 106.085938 C 270.355469 106.085938 270.355469 106.082031 270.359375 106.082031 C 270.394531 106.058594 270.429688 106.03125 270.460938 106 C 270.460938 106 270.460938 106 270.464844 106 L 272.082031 104.402344 C 273.992188 102.515625 275.109375 99.960938 275.089844 97.289062 C 275.066406 94.621094 273.96875 92.117188 272 90.265625 Z M 235.800781 122.492188 C 235.800781 120.550781 237.402344 118.972656 239.367188 118.972656 C 241.335938 118.972656 242.9375 120.550781 242.9375 122.492188 C 242.9375 124.433594 241.335938 126.011719 239.367188 126.011719 C 237.402344 126.011719 235.800781 124.433594 235.800781 122.492188 Z M 235.800781 122.492188 " fill-opacity="1" fill-rule="nonzero"/></g><g fill="#1572a1" fill-opacity="1"><g transform="translate(102.975531, 108.334107)"><g><path d="M 15.160156 0.652344 C 24.917969 0.652344 28.554688 -5.703125 28.554688 -12.707031 C 28.554688 -19.597656 24.917969 -26.105469 15.160156 -26.105469 C 5.398438 -26.105469 1.722656 -19.636719 1.722656 -12.707031 C 1.722656 -5.664062 5.398438 0.652344 15.160156 0.652344 Z M 7.808594 -12.707031 C 7.808594 -18.335938 9.570312 -21.359375 15.160156 -21.359375 C 20.746094 -21.359375 22.507812 -18.335938 22.507812 -12.707031 C 22.507812 -7.15625 20.746094 -4.132812 15.160156 -4.132812 C 9.570312 -4.132812 7.808594 -7.15625 7.808594 -12.707031 Z M 7.808594 -12.707031 "/></g></g></g><g fill="#1572a1" fill-opacity="1"><g transform="translate(133.252238, 108.334107)"><g><path d="M 1.492188 -8.382812 C 1.683594 -3.75 4.554688 0.652344 12.9375 0.652344 C 20.902344 0.652344 24 -2.601562 24 -7.617188 C 24 -12.058594 21.398438 -14.507812 16.230469 -15.082031 L 10.910156 -15.734375 C 8.804688 -15.960938 7.921875 -17.074219 7.921875 -18.566406 C 7.921875 -20.554688 9.570312 -21.820312 12.671875 -21.820312 C 16.039062 -21.820312 17.722656 -20.289062 18.03125 -17.914062 L 23.734375 -17.914062 C 23.425781 -22.429688 20.289062 -26.105469 12.671875 -26.105469 C 5.511719 -26.105469 2.066406 -22.8125 2.066406 -18.222656 C 2.066406 -14.011719 4.59375 -11.523438 9.109375 -10.984375 L 14.738281 -10.257812 C 16.996094 -9.953125 18.144531 -8.957031 18.144531 -7.042969 C 18.144531 -5.015625 16.882812 -3.675781 13.015625 -3.675781 C 8.996094 -3.675781 7.3125 -5.664062 7.15625 -8.382812 Z M 1.492188 -8.382812 "/></g></g></g><g fill="#1572a1" fill-opacity="1"><g transform="translate(158.940888, 106.952433)"><g><path d="M 5 -15.4375 C 7.144531 -15.4375 8.738281 -15.078125 9.78125 -14.359375 C 10.820312 -13.640625 11.34375 -12.507812 11.34375 -10.96875 C 11.34375 -9.332031 10.773438 -8.09375 9.640625 -7.25 C 8.515625 -6.414062 6.84375 -6 4.625 -6 L 4.0625 -6 L 4.0625 -2.53125 C 4.0625 -2.15625 4.082031 -1.742188 4.125 -1.296875 C 4.164062 -0.859375 4.25 -0.492188 4.375 -0.203125 C 4.25 -0.078125 4.082031 0.03125 3.875 0.125 C 3.675781 0.21875 3.457031 0.265625 3.21875 0.265625 C 2.863281 0.265625 2.578125 0.164062 2.359375 -0.03125 C 2.148438 -0.226562 2.046875 -0.492188 2.046875 -0.828125 L 2.046875 -12.5 C 2.046875 -12.832031 2.019531 -13.238281 1.96875 -13.71875 C 1.925781 -14.207031 1.851562 -14.613281 1.75 -14.9375 C 2.445312 -15.269531 3.53125 -15.4375 5 -15.4375 Z M 4.65625 -6.84375 C 6.207031 -6.84375 7.34375 -7.179688 8.0625 -7.859375 C 8.789062 -8.535156 9.15625 -9.523438 9.15625 -10.828125 C 9.15625 -12.085938 8.820312 -13.03125 8.15625 -13.65625 C 7.5 -14.28125 6.429688 -14.59375 4.953125 -14.59375 C 4.492188 -14.59375 4.195312 -14.578125 4.0625 -14.546875 L 4.0625 -6.84375 Z M 4.65625 -6.84375 "/></g></g></g><g fill="#1572a1" fill-opacity="1"><g transform="translate(171.262501, 106.952433)"><g><path d="M 2.8125 -13 C 2.445312 -13 2.140625 -13.117188 1.890625 -13.359375 C 1.648438 -13.609375 1.53125 -13.910156 1.53125 -14.265625 C 1.53125 -14.628906 1.648438 -14.929688 1.890625 -15.171875 C 2.140625 -15.421875 2.445312 -15.546875 2.8125 -15.546875 C 3.164062 -15.546875 3.460938 -15.421875 3.703125 -15.171875 C 3.953125 -14.929688 4.078125 -14.628906 4.078125 -14.265625 C 4.078125 -13.910156 3.953125 -13.609375 3.703125 -13.359375 C 3.460938 -13.117188 3.164062 -13 2.8125 -13 Z M 3.890625 -2.625 C 3.890625 -1.539062 3.988281 -0.734375 4.1875 -0.203125 C 3.882812 0.109375 3.507812 0.265625 3.0625 0.265625 C 2.738281 0.265625 2.46875 0.164062 2.25 -0.03125 C 2.039062 -0.226562 1.9375 -0.492188 1.9375 -0.828125 L 1.921875 -8.546875 C 1.921875 -9.628906 1.816406 -10.441406 1.609375 -10.984375 C 1.992188 -11.273438 2.375 -11.421875 2.75 -11.421875 C 3.082031 -11.421875 3.347656 -11.328125 3.546875 -11.140625 C 3.753906 -10.953125 3.859375 -10.691406 3.859375 -10.359375 Z M 3.890625 -2.625 "/></g></g></g><g fill="#1572a1" fill-opacity="1"><g transform="translate(177.008217, 106.952433)"><g><path d="M 4.71875 -11.125 C 4.96875 -11.125 5.300781 -11.128906 5.71875 -11.140625 C 6.144531 -11.148438 6.484375 -11.164062 6.734375 -11.1875 L 6.703125 -10.65625 C 6.691406 -10.476562 6.632812 -10.34375 6.53125 -10.25 C 6.425781 -10.15625 6.300781 -10.109375 6.15625 -10.109375 L 4 -10.109375 L 4 -9.328125 L 3.96875 -2.46875 C 3.96875 -1.675781 4.320312 -1.28125 5.03125 -1.28125 C 5.226562 -1.28125 5.425781 -1.316406 5.625 -1.390625 C 5.820312 -1.460938 5.945312 -1.566406 6 -1.703125 C 6.175781 -1.472656 6.265625 -1.226562 6.265625 -0.96875 C 6.265625 -0.601562 6.082031 -0.3125 5.71875 -0.09375 C 5.351562 0.125 4.878906 0.234375 4.296875 0.234375 C 3.585938 0.234375 3.03125 0.0078125 2.625 -0.4375 C 2.21875 -0.882812 2.015625 -1.507812 2.015625 -2.3125 L 2.015625 -10.109375 L 1.6875 -10.109375 C 1.101562 -10.109375 0.664062 -10.085938 0.375 -10.046875 L 0.390625 -10.59375 C 0.410156 -10.769531 0.46875 -10.898438 0.5625 -10.984375 C 0.664062 -11.078125 0.800781 -11.125 0.96875 -11.125 L 2.015625 -11.125 L 2.015625 -12.953125 C 2.015625 -13.285156 2.117188 -13.546875 2.328125 -13.734375 C 2.535156 -13.929688 2.816406 -14.03125 3.171875 -14.03125 C 3.578125 -14.03125 3.945312 -13.882812 4.28125 -13.59375 C 4.125 -13.03125 4.035156 -12.207031 4.015625 -11.125 Z M 4.71875 -11.125 "/></g></g></g><g fill="#1572a1" fill-opacity="1"><g transform="translate(184.479836, 106.952433)"><g><path d="M 11.640625 -1.71875 C 11.804688 -1.488281 11.890625 -1.242188 11.890625 -0.984375 C 11.890625 -0.648438 11.726562 -0.363281 11.40625 -0.125 C 11.09375 0.101562 10.710938 0.21875 10.265625 0.21875 C 9.597656 0.21875 9.09375 -0.0078125 8.75 -0.46875 C 8.414062 -0.9375 8.25 -1.671875 8.25 -2.671875 L 8.25 -3.015625 C 7.800781 -2.023438 7.175781 -1.234375 6.375 -0.640625 C 5.570312 -0.0546875 4.675781 0.234375 3.6875 0.234375 C 2.84375 0.234375 2.171875 0.00390625 1.671875 -0.453125 C 1.179688 -0.910156 0.9375 -1.523438 0.9375 -2.296875 C 0.9375 -3.171875 1.269531 -3.910156 1.9375 -4.515625 C 2.613281 -5.117188 3.5 -5.570312 4.59375 -5.875 C 5.75 -6.175781 6.929688 -6.304688 8.140625 -6.265625 L 8.140625 -6.8125 C 8.140625 -8.113281 7.941406 -9.066406 7.546875 -9.671875 C 7.148438 -10.285156 6.484375 -10.59375 5.546875 -10.59375 C 4.953125 -10.59375 4.445312 -10.453125 4.03125 -10.171875 C 3.625 -9.898438 3.421875 -9.457031 3.421875 -8.84375 C 3.421875 -8.519531 3.5 -8.207031 3.65625 -7.90625 C 3.8125 -7.613281 4.039062 -7.410156 4.34375 -7.296875 C 4.082031 -6.992188 3.695312 -6.84375 3.1875 -6.84375 C 2.664062 -6.84375 2.242188 -7.035156 1.921875 -7.421875 C 1.597656 -7.804688 1.4375 -8.257812 1.4375 -8.78125 C 1.4375 -9.625 1.816406 -10.273438 2.578125 -10.734375 C 3.347656 -11.191406 4.394531 -11.421875 5.71875 -11.421875 C 7.25 -11.421875 8.375 -11.039062 9.09375 -10.28125 C 9.8125 -9.53125 10.171875 -8.335938 10.171875 -6.703125 L 10.171875 -2.46875 C 10.171875 -1.695312 10.425781 -1.3125 10.9375 -1.3125 C 11.0625 -1.3125 11.1875 -1.347656 11.3125 -1.421875 C 11.445312 -1.492188 11.554688 -1.59375 11.640625 -1.71875 Z M 4.546875 -1.109375 C 5.085938 -1.109375 5.640625 -1.316406 6.203125 -1.734375 C 6.773438 -2.148438 7.25 -2.695312 7.625 -3.375 C 8 -4.050781 8.195312 -4.769531 8.21875 -5.53125 C 7.675781 -5.550781 7.101562 -5.519531 6.5 -5.4375 C 5.90625 -5.363281 5.40625 -5.238281 5 -5.0625 C 4.382812 -4.832031 3.914062 -4.519531 3.59375 -4.125 C 3.269531 -3.726562 3.109375 -3.265625 3.109375 -2.734375 C 3.109375 -2.265625 3.222656 -1.875 3.453125 -1.5625 C 3.679688 -1.257812 4.046875 -1.109375 4.546875 -1.109375 Z M 4.546875 -1.109375 "/></g></g></g><g fill="#1572a1" fill-opacity="1"><g transform="translate(196.56114, 106.952433)"><g><path d="M 3.859375 0.21875 C 3.179688 0.21875 2.648438 -0.00390625 2.265625 -0.453125 C 1.878906 -0.910156 1.6875 -1.539062 1.6875 -2.34375 L 1.6875 -14.875 C 1.6875 -15.226562 1.789062 -15.5 2 -15.6875 C 2.207031 -15.875 2.488281 -15.96875 2.84375 -15.96875 C 3.289062 -15.96875 3.664062 -15.816406 3.96875 -15.515625 C 3.84375 -15.085938 3.757812 -14.570312 3.71875 -13.96875 C 3.6875 -13.375 3.671875 -12.46875 3.671875 -11.25 L 3.640625 -2.46875 C 3.640625 -1.695312 3.921875 -1.3125 4.484375 -1.3125 C 4.640625 -1.3125 4.789062 -1.347656 4.9375 -1.421875 C 5.082031 -1.492188 5.1875 -1.59375 5.25 -1.71875 C 5.414062 -1.488281 5.5 -1.242188 5.5 -0.984375 C 5.5 -0.628906 5.335938 -0.335938 5.015625 -0.109375 C 4.703125 0.109375 4.316406 0.21875 3.859375 0.21875 Z M 3.859375 0.21875 "/></g></g></g><g fill="#1572a1" fill-opacity="1"><g transform="translate(126.245622, 124.358993)"><g><path d="M 10.25 -8.484375 C 10.6875 -8.484375 10.898438 -8.320312 10.890625 -8 C 10.890625 -7.882812 10.847656 -7.6875 10.765625 -7.40625 L 8.703125 -0.03125 C 8.429688 0.0820312 8.1875 0.140625 7.96875 0.140625 C 7.789062 0.140625 7.640625 0.109375 7.515625 0.046875 C 7.398438 -0.00390625 7.328125 -0.0859375 7.296875 -0.203125 L 5.65625 -6.171875 L 3.921875 -0.03125 C 3.648438 0.0820312 3.410156 0.140625 3.203125 0.140625 C 2.773438 0.140625 2.535156 0.0234375 2.484375 -0.203125 L 0.53125 -7.65625 C 0.46875 -7.90625 0.367188 -8.101562 0.234375 -8.25 C 0.378906 -8.414062 0.597656 -8.5 0.890625 -8.5 C 1.078125 -8.5 1.234375 -8.460938 1.359375 -8.390625 C 1.484375 -8.328125 1.5625 -8.222656 1.59375 -8.078125 L 3.328125 -0.796875 L 5 -6.828125 C 5.03125 -6.929688 5.046875 -7.03125 5.046875 -7.125 C 5.046875 -7.238281 5.019531 -7.351562 4.96875 -7.46875 C 5.070312 -7.53125 5.195312 -7.578125 5.34375 -7.609375 C 5.5 -7.640625 5.628906 -7.65625 5.734375 -7.65625 C 5.867188 -7.65625 5.984375 -7.628906 6.078125 -7.578125 C 6.179688 -7.535156 6.25 -7.472656 6.28125 -7.390625 L 8.109375 -0.796875 L 9.6875 -7.65625 C 9.695312 -7.695312 9.707031 -7.757812 9.71875 -7.84375 C 9.738281 -7.9375 9.75 -8.015625 9.75 -8.078125 C 9.75 -8.191406 9.722656 -8.289062 9.671875 -8.375 C 9.859375 -8.445312 10.050781 -8.484375 10.25 -8.484375 Z M 10.25 -8.484375 "/></g></g></g><g fill="#1572a1" fill-opacity="1"><g transform="translate(137.417221, 124.358993)"><g><path d="M 5.4375 -1.59375 C 5.5625 -1.539062 5.625 -1.445312 5.625 -1.3125 C 5.625 -1.21875 5.59375 -1.101562 5.53125 -0.96875 C 5.382812 -0.601562 5.117188 -0.320312 4.734375 -0.125 C 4.347656 0.0625 3.894531 0.15625 3.375 0.15625 C 2.476562 0.15625 1.773438 -0.117188 1.265625 -0.671875 C 0.753906 -1.222656 0.5 -2.015625 0.5 -3.046875 C 0.5 -4.054688 0.75 -4.847656 1.25 -5.421875 C 1.757812 -6.003906 2.484375 -6.296875 3.421875 -6.296875 C 4.085938 -6.296875 4.628906 -6.140625 5.046875 -5.828125 C 5.460938 -5.523438 5.671875 -5.09375 5.671875 -4.53125 C 5.671875 -3.9375 5.425781 -3.484375 4.9375 -3.171875 C 4.457031 -2.859375 3.796875 -2.703125 2.953125 -2.703125 C 2.535156 -2.703125 2.113281 -2.726562 1.6875 -2.78125 C 1.78125 -1.300781 2.429688 -0.5625 3.640625 -0.5625 C 4.078125 -0.5625 4.453125 -0.648438 4.765625 -0.828125 C 5.085938 -1.015625 5.3125 -1.269531 5.4375 -1.59375 Z M 3.375 -5.828125 C 2.851562 -5.828125 2.441406 -5.601562 2.140625 -5.15625 C 1.835938 -4.707031 1.679688 -4.0625 1.671875 -3.21875 C 1.835938 -3.207031 2.109375 -3.191406 2.484375 -3.171875 C 3.085938 -3.171875 3.570312 -3.28125 3.9375 -3.5 C 4.3125 -3.726562 4.5 -4.125 4.5 -4.6875 C 4.5 -5.101562 4.390625 -5.394531 4.171875 -5.5625 C 3.953125 -5.738281 3.6875 -5.828125 3.375 -5.828125 Z M 3.375 -5.828125 "/></g></g></g><g fill="#1572a1" fill-opacity="1"><g transform="translate(143.598272, 124.358993)"><g><path d="M 3.28125 0.15625 C 2.8125 0.15625 2.351562 0.09375 1.90625 -0.03125 C 1.46875 -0.164062 1.117188 -0.375 0.859375 -0.65625 L 0.859375 -8.1875 C 0.859375 -8.375 0.910156 -8.519531 1.015625 -8.625 C 1.117188 -8.738281 1.257812 -8.796875 1.4375 -8.796875 C 1.695312 -8.796875 1.925781 -8.710938 2.125 -8.546875 C 2.007812 -8.097656 1.953125 -7.457031 1.953125 -6.625 L 1.9375 -4.84375 C 2.09375 -5.269531 2.34375 -5.617188 2.6875 -5.890625 C 3.039062 -6.160156 3.457031 -6.296875 3.9375 -6.296875 C 4.601562 -6.296875 5.117188 -6.050781 5.484375 -5.5625 C 5.859375 -5.082031 6.046875 -4.335938 6.046875 -3.328125 C 6.046875 -2.265625 5.816406 -1.414062 5.359375 -0.78125 C 4.910156 -0.15625 4.21875 0.15625 3.28125 0.15625 Z M 3.21875 -0.34375 C 3.863281 -0.363281 4.300781 -0.648438 4.53125 -1.203125 C 4.769531 -1.753906 4.890625 -2.460938 4.890625 -3.328125 C 4.890625 -4.128906 4.789062 -4.71875 4.59375 -5.09375 C 4.40625 -5.476562 4.117188 -5.671875 3.734375 -5.671875 C 3.316406 -5.671875 2.972656 -5.53125 2.703125 -5.25 C 2.441406 -4.96875 2.25 -4.609375 2.125 -4.171875 C 2 -3.742188 1.9375 -3.300781 1.9375 -2.84375 L 1.9375 -0.78125 C 2.050781 -0.664062 2.226562 -0.5625 2.46875 -0.46875 C 2.71875 -0.382812 2.96875 -0.34375 3.21875 -0.34375 Z M 3.21875 -0.34375 "/></g></g></g><g fill="#1572a1" fill-opacity="1"><g transform="translate(150.140089, 124.358993)"><g/></g></g><g fill="#1572a1" fill-opacity="1"><g transform="translate(152.761625, 124.358993)"><g><path d="M 6.796875 -0.71875 C 6.878906 -0.457031 6.984375 -0.257812 7.109375 -0.125 C 6.953125 0.0390625 6.734375 0.125 6.453125 0.125 C 6.285156 0.125 6.140625 0.0859375 6.015625 0.015625 C 5.890625 -0.0546875 5.8125 -0.160156 5.78125 -0.296875 L 5.09375 -2.609375 L 2.015625 -2.609375 L 1.46875 -0.703125 C 1.414062 -0.503906 1.390625 -0.363281 1.390625 -0.28125 C 1.390625 -0.144531 1.421875 -0.0390625 1.484375 0.03125 C 1.273438 0.09375 1.070312 0.125 0.875 0.125 C 0.65625 0.125 0.492188 0.0859375 0.390625 0.015625 C 0.296875 -0.0546875 0.25 -0.175781 0.25 -0.34375 C 0.25 -0.476562 0.296875 -0.679688 0.390625 -0.953125 L 2.890625 -8.34375 C 3.179688 -8.445312 3.484375 -8.5 3.796875 -8.5 C 4.148438 -8.5 4.363281 -8.375 4.4375 -8.125 Z M 4.890625 -3.25 L 3.53125 -7.796875 L 2.21875 -3.25 Z M 4.890625 -3.25 "/></g></g></g><g fill="#1572a1" fill-opacity="1"><g transform="translate(159.964838, 124.358993)"><g><path d="M 4.21875 -6.296875 C 4.988281 -6.296875 5.53125 -6.007812 5.84375 -5.4375 C 6.15625 -4.863281 6.3125 -4.160156 6.3125 -3.328125 C 6.3125 -2.222656 6.085938 -1.363281 5.640625 -0.75 C 5.191406 -0.144531 4.566406 0.15625 3.765625 0.15625 C 3.367188 0.15625 3.03125 0.078125 2.75 -0.078125 C 2.46875 -0.234375 2.269531 -0.457031 2.15625 -0.75 L 2.15625 0.53125 C 2.15625 1.351562 2.210938 1.984375 2.328125 2.421875 C 2.265625 2.484375 2.175781 2.535156 2.0625 2.578125 C 1.957031 2.628906 1.835938 2.65625 1.703125 2.65625 C 1.523438 2.65625 1.375 2.601562 1.25 2.5 C 1.132812 2.394531 1.078125 2.25 1.078125 2.0625 L 1.078125 -4.78125 C 1.078125 -5.007812 1.050781 -5.171875 1 -5.265625 C 0.945312 -5.359375 0.863281 -5.40625 0.75 -5.40625 C 0.59375 -5.40625 0.488281 -5.347656 0.4375 -5.234375 C 0.332031 -5.378906 0.28125 -5.515625 0.28125 -5.640625 C 0.28125 -5.816406 0.347656 -5.960938 0.484375 -6.078125 C 0.628906 -6.191406 0.820312 -6.25 1.0625 -6.25 C 1.738281 -6.25 2.085938 -5.710938 2.109375 -4.640625 C 2.296875 -5.160156 2.566406 -5.566406 2.921875 -5.859375 C 3.273438 -6.148438 3.707031 -6.296875 4.21875 -6.296875 Z M 3.515625 -0.453125 C 4.046875 -0.453125 4.453125 -0.691406 4.734375 -1.171875 C 5.015625 -1.660156 5.15625 -2.378906 5.15625 -3.328125 C 5.15625 -4.023438 5.066406 -4.582031 4.890625 -5 C 4.722656 -5.425781 4.398438 -5.640625 3.921875 -5.640625 C 3.554688 -5.640625 3.242188 -5.492188 2.984375 -5.203125 C 2.722656 -4.921875 2.519531 -4.539062 2.375 -4.0625 C 2.238281 -3.59375 2.171875 -3.082031 2.171875 -2.53125 C 2.171875 -1.875 2.269531 -1.363281 2.46875 -1 C 2.664062 -0.632812 3.015625 -0.453125 3.515625 -0.453125 Z M 3.515625 -0.453125 "/></g></g></g><g fill="#1572a1" fill-opacity="1"><g transform="translate(166.783238, 124.358993)"><g><path d="M 4.21875 -6.296875 C 4.988281 -6.296875 5.53125 -6.007812 5.84375 -5.4375 C 6.15625 -4.863281 6.3125 -4.160156 6.3125 -3.328125 C 6.3125 -2.222656 6.085938 -1.363281 5.640625 -0.75 C 5.191406 -0.144531 4.566406 0.15625 3.765625 0.15625 C 3.367188 0.15625 3.03125 0.078125 2.75 -0.078125 C 2.46875 -0.234375 2.269531 -0.457031 2.15625 -0.75 L 2.15625 0.53125 C 2.15625 1.351562 2.210938 1.984375 2.328125 2.421875 C 2.265625 2.484375 2.175781 2.535156 2.0625 2.578125 C 1.957031 2.628906 1.835938 2.65625 1.703125 2.65625 C 1.523438 2.65625 1.375 2.601562 1.25 2.5 C 1.132812 2.394531 1.078125 2.25 1.078125 2.0625 L 1.078125 -4.78125 C 1.078125 -5.007812 1.050781 -5.171875 1 -5.265625 C 0.945312 -5.359375 0.863281 -5.40625 0.75 -5.40625 C 0.59375 -5.40625 0.488281 -5.347656 0.4375 -5.234375 C 0.332031 -5.378906 0.28125 -5.515625 0.28125 -5.640625 C 0.28125 -5.816406 0.347656 -5.960938 0.484375 -6.078125 C 0.628906 -6.191406 0.820312 -6.25 1.0625 -6.25 C 1.738281 -6.25 2.085938 -5.710938 2.109375 -4.640625 C 2.296875 -5.160156 2.566406 -5.566406 2.921875 -5.859375 C 3.273438 -6.148438 3.707031 -6.296875 4.21875 -6.296875 Z M 3.515625 -0.453125 C 4.046875 -0.453125 4.453125 -0.691406 4.734375 -1.171875 C 5.015625 -1.660156 5.15625 -2.378906 5.15625 -3.328125 C 5.15625 -4.023438 5.066406 -4.582031 4.890625 -5 C 4.722656 -5.425781 4.398438 -5.640625 3.921875 -5.640625 C 3.554688 -5.640625 3.242188 -5.492188 2.984375 -5.203125 C 2.722656 -4.921875 2.519531 -4.539062 2.375 -4.0625 C 2.238281 -3.59375 2.171875 -3.082031 2.171875 -2.53125 C 2.171875 -1.875 2.269531 -1.363281 2.46875 -1 C 2.664062 -0.632812 3.015625 -0.453125 3.515625 -0.453125 Z M 3.515625 -0.453125 "/></g></g></g><g fill="#1572a1" fill-opacity="1"><g transform="translate(173.601638, 124.358993)"><g><path d="M 2.125 0.125 C 1.75 0.125 1.453125 0 1.234375 -0.25 C 1.023438 -0.5 0.921875 -0.84375 0.921875 -1.28125 L 0.921875 -8.1875 C 0.921875 -8.382812 0.976562 -8.535156 1.09375 -8.640625 C 1.21875 -8.742188 1.375 -8.796875 1.5625 -8.796875 C 1.8125 -8.796875 2.019531 -8.710938 2.1875 -8.546875 C 2.113281 -8.304688 2.066406 -8.019531 2.046875 -7.6875 C 2.023438 -7.363281 2.015625 -6.867188 2.015625 -6.203125 L 2.015625 -1.359375 C 2.015625 -0.929688 2.164062 -0.71875 2.46875 -0.71875 C 2.550781 -0.71875 2.632812 -0.738281 2.71875 -0.78125 C 2.800781 -0.820312 2.859375 -0.878906 2.890625 -0.953125 C 2.984375 -0.828125 3.03125 -0.691406 3.03125 -0.546875 C 3.03125 -0.347656 2.941406 -0.1875 2.765625 -0.0625 C 2.585938 0.0625 2.375 0.125 2.125 0.125 Z M 2.125 0.125 "/></g></g></g><g fill="#1572a1" fill-opacity="1"><g transform="translate(176.896599, 124.358993)"><g><path d="M 1.546875 -7.15625 C 1.347656 -7.15625 1.179688 -7.222656 1.046875 -7.359375 C 0.910156 -7.492188 0.84375 -7.660156 0.84375 -7.859375 C 0.84375 -8.054688 0.910156 -8.222656 1.046875 -8.359375 C 1.179688 -8.492188 1.347656 -8.5625 1.546875 -8.5625 C 1.742188 -8.5625 1.910156 -8.492188 2.046875 -8.359375 C 2.179688 -8.222656 2.25 -8.054688 2.25 -7.859375 C 2.25 -7.660156 2.179688 -7.492188 2.046875 -7.359375 C 1.910156 -7.222656 1.742188 -7.15625 1.546875 -7.15625 Z M 2.140625 -1.4375 C 2.140625 -0.84375 2.195312 -0.398438 2.3125 -0.109375 C 2.144531 0.0546875 1.9375 0.140625 1.6875 0.140625 C 1.507812 0.140625 1.363281 0.0859375 1.25 -0.015625 C 1.132812 -0.128906 1.078125 -0.273438 1.078125 -0.453125 L 1.0625 -4.703125 C 1.0625 -5.304688 1.003906 -5.753906 0.890625 -6.046875 C 1.097656 -6.210938 1.304688 -6.296875 1.515625 -6.296875 C 1.703125 -6.296875 1.847656 -6.242188 1.953125 -6.140625 C 2.066406 -6.035156 2.125 -5.890625 2.125 -5.703125 Z M 2.140625 -1.4375 "/></g></g></g><g fill="#1572a1" fill-opacity="1"><g transform="translate(180.059283, 124.358993)"><g><path d="M 3.34375 0.15625 C 2.445312 0.15625 1.75 -0.113281 1.25 -0.65625 C 0.75 -1.207031 0.5 -2.003906 0.5 -3.046875 C 0.5 -4.054688 0.753906 -4.847656 1.265625 -5.421875 C 1.773438 -6.003906 2.492188 -6.296875 3.421875 -6.296875 C 4.085938 -6.296875 4.601562 -6.148438 4.96875 -5.859375 C 5.332031 -5.578125 5.515625 -5.210938 5.515625 -4.765625 C 5.515625 -4.472656 5.429688 -4.238281 5.265625 -4.0625 C 5.109375 -3.882812 4.898438 -3.796875 4.640625 -3.796875 C 4.367188 -3.796875 4.164062 -3.878906 4.03125 -4.046875 C 4.289062 -4.171875 4.421875 -4.4375 4.421875 -4.84375 C 4.421875 -5.1875 4.316406 -5.4375 4.109375 -5.59375 C 3.910156 -5.75 3.648438 -5.828125 3.328125 -5.828125 C 2.828125 -5.828125 2.425781 -5.597656 2.125 -5.140625 C 1.820312 -4.691406 1.671875 -4.050781 1.671875 -3.21875 C 1.671875 -2.300781 1.847656 -1.628906 2.203125 -1.203125 C 2.566406 -0.773438 3.046875 -0.5625 3.640625 -0.5625 C 4.085938 -0.5625 4.46875 -0.671875 4.78125 -0.890625 C 5.09375 -1.109375 5.296875 -1.414062 5.390625 -1.8125 C 5.515625 -1.75 5.578125 -1.632812 5.578125 -1.46875 C 5.578125 -1.375 5.554688 -1.269531 5.515625 -1.15625 C 5.390625 -0.738281 5.132812 -0.414062 4.75 -0.1875 C 4.363281 0.0390625 3.894531 0.15625 3.34375 0.15625 Z M 3.34375 0.15625 "/></g></g></g><g fill="#1572a1" fill-opacity="1"><g transform="translate(186.156162, 124.358993)"><g><path d="M 6.40625 -0.953125 C 6.5 -0.828125 6.546875 -0.691406 6.546875 -0.546875 C 6.546875 -0.359375 6.457031 -0.195312 6.28125 -0.0625 C 6.113281 0.0625 5.90625 0.125 5.65625 0.125 C 5.28125 0.125 5 -0.00390625 4.8125 -0.265625 C 4.632812 -0.523438 4.546875 -0.925781 4.546875 -1.46875 L 4.546875 -1.65625 C 4.296875 -1.113281 3.945312 -0.679688 3.5 -0.359375 C 3.0625 -0.0351562 2.570312 0.125 2.03125 0.125 C 1.5625 0.125 1.191406 0 0.921875 -0.25 C 0.648438 -0.5 0.515625 -0.835938 0.515625 -1.265625 C 0.515625 -1.742188 0.695312 -2.148438 1.0625 -2.484375 C 1.4375 -2.816406 1.925781 -3.066406 2.53125 -3.234375 C 3.164062 -3.398438 3.816406 -3.472656 4.484375 -3.453125 L 4.484375 -3.75 C 4.484375 -4.46875 4.375 -4.992188 4.15625 -5.328125 C 3.9375 -5.660156 3.570312 -5.828125 3.0625 -5.828125 C 2.726562 -5.828125 2.445312 -5.75 2.21875 -5.59375 C 2 -5.445312 1.890625 -5.207031 1.890625 -4.875 C 1.890625 -4.695312 1.929688 -4.523438 2.015625 -4.359375 C 2.097656 -4.191406 2.222656 -4.078125 2.390625 -4.015625 C 2.242188 -3.847656 2.03125 -3.765625 1.75 -3.765625 C 1.46875 -3.765625 1.238281 -3.867188 1.0625 -4.078125 C 0.882812 -4.296875 0.796875 -4.550781 0.796875 -4.84375 C 0.796875 -5.300781 1.003906 -5.65625 1.421875 -5.90625 C 1.847656 -6.164062 2.425781 -6.296875 3.15625 -6.296875 C 4 -6.296875 4.617188 -6.085938 5.015625 -5.671875 C 5.410156 -5.253906 5.609375 -4.59375 5.609375 -3.6875 L 5.609375 -1.359375 C 5.609375 -0.929688 5.75 -0.71875 6.03125 -0.71875 C 6.09375 -0.71875 6.160156 -0.738281 6.234375 -0.78125 C 6.304688 -0.820312 6.363281 -0.878906 6.40625 -0.953125 Z M 2.5 -0.609375 C 2.800781 -0.609375 3.109375 -0.722656 3.421875 -0.953125 C 3.734375 -1.179688 3.992188 -1.484375 4.203125 -1.859375 C 4.410156 -2.234375 4.519531 -2.628906 4.53125 -3.046875 C 4.226562 -3.054688 3.910156 -3.039062 3.578125 -3 C 3.253906 -2.957031 2.976562 -2.890625 2.75 -2.796875 C 2.414062 -2.660156 2.15625 -2.484375 1.96875 -2.265625 C 1.789062 -2.054688 1.703125 -1.800781 1.703125 -1.5 C 1.703125 -1.25 1.765625 -1.035156 1.890625 -0.859375 C 2.023438 -0.691406 2.226562 -0.609375 2.5 -0.609375 Z M 2.5 -0.609375 "/></g></g></g><g fill="#1572a1" fill-opacity="1"><g transform="translate(192.806209, 124.358993)"><g><path d="M 2.59375 -6.125 C 2.726562 -6.125 2.910156 -6.125 3.140625 -6.125 C 3.378906 -6.132812 3.566406 -6.144531 3.703125 -6.15625 L 3.6875 -5.875 C 3.6875 -5.78125 3.65625 -5.707031 3.59375 -5.65625 C 3.539062 -5.601562 3.472656 -5.578125 3.390625 -5.578125 L 2.203125 -5.578125 L 2.203125 -5.140625 L 2.1875 -1.359375 C 2.1875 -0.921875 2.378906 -0.703125 2.765625 -0.703125 C 2.878906 -0.703125 2.988281 -0.722656 3.09375 -0.765625 C 3.207031 -0.804688 3.28125 -0.863281 3.3125 -0.9375 C 3.40625 -0.8125 3.453125 -0.675781 3.453125 -0.53125 C 3.453125 -0.332031 3.347656 -0.171875 3.140625 -0.046875 C 2.941406 0.0664062 2.6875 0.125 2.375 0.125 C 1.976562 0.125 1.664062 0.00390625 1.4375 -0.234375 C 1.21875 -0.484375 1.109375 -0.832031 1.109375 -1.28125 L 1.109375 -5.578125 L 0.921875 -5.578125 C 0.597656 -5.578125 0.359375 -5.5625 0.203125 -5.53125 L 0.21875 -5.828125 C 0.226562 -5.929688 0.257812 -6.003906 0.3125 -6.046875 C 0.363281 -6.097656 0.4375 -6.125 0.53125 -6.125 L 1.109375 -6.125 L 1.109375 -7.140625 C 1.109375 -7.316406 1.164062 -7.457031 1.28125 -7.5625 C 1.394531 -7.664062 1.550781 -7.71875 1.75 -7.71875 C 1.96875 -7.71875 2.171875 -7.640625 2.359375 -7.484375 C 2.265625 -7.179688 2.21875 -6.726562 2.21875 -6.125 Z M 2.59375 -6.125 "/></g></g></g><g fill="#1572a1" fill-opacity="1"><g transform="translate(196.918891, 124.358993)"><g><path d="M 1.546875 -7.15625 C 1.347656 -7.15625 1.179688 -7.222656 1.046875 -7.359375 C 0.910156 -7.492188 0.84375 -7.660156 0.84375 -7.859375 C 0.84375 -8.054688 0.910156 -8.222656 1.046875 -8.359375 C 1.179688 -8.492188 1.347656 -8.5625 1.546875 -8.5625 C 1.742188 -8.5625 1.910156 -8.492188 2.046875 -8.359375 C 2.179688 -8.222656 2.25 -8.054688 2.25 -7.859375 C 2.25 -7.660156 2.179688 -7.492188 2.046875 -7.359375 C 1.910156 -7.222656 1.742188 -7.15625 1.546875 -7.15625 Z M 2.140625 -1.4375 C 2.140625 -0.84375 2.195312 -0.398438 2.3125 -0.109375 C 2.144531 0.0546875 1.9375 0.140625 1.6875 0.140625 C 1.507812 0.140625 1.363281 0.0859375 1.25 -0.015625 C 1.132812 -0.128906 1.078125 -0.273438 1.078125 -0.453125 L 1.0625 -4.703125 C 1.0625 -5.304688 1.003906 -5.753906 0.890625 -6.046875 C 1.097656 -6.210938 1.304688 -6.296875 1.515625 -6.296875 C 1.703125 -6.296875 1.847656 -6.242188 1.953125 -6.140625 C 2.066406 -6.035156 2.125 -5.890625 2.125 -5.703125 Z M 2.140625 -1.4375 "/></g></g></g><g fill="#1572a1" fill-opacity="1"><g transform="translate(200.081574, 124.358993)"><g><path d="M 3.3125 0.15625 C 2.425781 0.15625 1.734375 -0.125 1.234375 -0.6875 C 0.742188 -1.257812 0.5 -2.050781 0.5 -3.0625 C 0.5 -4.070312 0.742188 -4.863281 1.234375 -5.4375 C 1.734375 -6.007812 2.425781 -6.296875 3.3125 -6.296875 C 4.1875 -6.296875 4.867188 -6.007812 5.359375 -5.4375 C 5.847656 -4.863281 6.09375 -4.070312 6.09375 -3.0625 C 6.09375 -2.050781 5.847656 -1.257812 5.359375 -0.6875 C 4.867188 -0.125 4.1875 0.15625 3.3125 0.15625 Z M 3.3125 -0.296875 C 3.84375 -0.296875 4.242188 -0.53125 4.515625 -1 C 4.796875 -1.476562 4.9375 -2.164062 4.9375 -3.0625 C 4.9375 -3.96875 4.796875 -4.65625 4.515625 -5.125 C 4.242188 -5.59375 3.84375 -5.828125 3.3125 -5.828125 C 2.769531 -5.828125 2.359375 -5.59375 2.078125 -5.125 C 1.804688 -4.65625 1.671875 -3.96875 1.671875 -3.0625 C 1.671875 -2.164062 1.804688 -1.476562 2.078125 -1 C 2.359375 -0.53125 2.769531 -0.296875 3.3125 -0.296875 Z M 3.3125 -0.296875 "/></g></g></g><g fill="#1572a1" fill-opacity="1"><g transform="translate(206.695544, 124.358993)"><g><path d="M 6.046875 -1.4375 C 6.054688 -0.820312 6.113281 -0.378906 6.21875 -0.109375 C 6.03125 0.0546875 5.820312 0.140625 5.59375 0.140625 C 5.40625 0.140625 5.25 0.0859375 5.125 -0.015625 C 5.007812 -0.128906 4.953125 -0.273438 4.953125 -0.453125 L 4.953125 -3.65625 C 4.941406 -4.34375 4.847656 -4.847656 4.671875 -5.171875 C 4.503906 -5.503906 4.207031 -5.671875 3.78125 -5.671875 C 3.507812 -5.671875 3.25 -5.570312 3 -5.375 C 2.757812 -5.1875 2.5625 -4.882812 2.40625 -4.46875 C 2.25 -4.050781 2.171875 -3.523438 2.171875 -2.890625 C 2.171875 -1.890625 2.175781 -1.226562 2.1875 -0.90625 C 2.207031 -0.59375 2.257812 -0.320312 2.34375 -0.09375 C 2.28125 -0.03125 2.191406 0.0195312 2.078125 0.0625 C 1.972656 0.113281 1.851562 0.140625 1.71875 0.140625 C 1.53125 0.140625 1.375 0.0820312 1.25 -0.03125 C 1.132812 -0.144531 1.078125 -0.300781 1.078125 -0.5 L 1.078125 -4.828125 C 1.078125 -5.046875 1.050781 -5.203125 1 -5.296875 C 0.945312 -5.390625 0.863281 -5.4375 0.75 -5.4375 C 0.59375 -5.4375 0.488281 -5.378906 0.4375 -5.265625 C 0.332031 -5.398438 0.28125 -5.535156 0.28125 -5.671875 C 0.28125 -5.847656 0.347656 -5.992188 0.484375 -6.109375 C 0.628906 -6.222656 0.820312 -6.28125 1.0625 -6.28125 C 1.382812 -6.28125 1.628906 -6.171875 1.796875 -5.953125 C 1.972656 -5.734375 2.0625 -5.410156 2.0625 -4.984375 L 2.0625 -4.84375 C 2.226562 -5.300781 2.488281 -5.65625 2.84375 -5.90625 C 3.195312 -6.164062 3.617188 -6.296875 4.109375 -6.296875 C 5.398438 -6.296875 6.046875 -5.460938 6.046875 -3.796875 Z M 6.046875 -1.4375 "/></g></g></g></svg>